<svg xmlns="http://www.w3.org/2000/svg" viewBox="0 0 512 512" role="img" aria-label="Algo Atelier app icon">
  <defs>
    <linearGradient id="frame" x1="0%" y1="0%" x2="100%" y2="100%">
      <stop offset="0%" stop-color="#f7faff"/>
      <stop offset="100%" stop-color="#eaf1fd"/>
    </linearGradient>
    <filter id="cardShadow" x="-30%" y="-30%" width="160%" height="160%">
      <feDropShadow dx="0" dy="14" stdDeviation="18" flood-color="#1a73e8" flood-opacity="0.18"/>
    </filter>
  </defs>

  <rect width="512" height="512" rx="112" fill="#e8f0fe"/>
  <rect x="34" y="34" width="444" height="444" rx="100" fill="url(#frame)" filter="url(#cardShadow)"/>
  <rect x="64" y="64" width="384" height="384" rx="84" fill="#ffffff"/>

  <g transform="translate(256 248)">
    <path d="M0 -132A132 132 0 0 1 132 0" fill="none" stroke="#4285f4" stroke-width="18" stroke-linecap="round"/>
    <path d="M132 0A132 132 0 0 1 0 132" fill="none" stroke="#ea4335" stroke-width="18" stroke-linecap="round"/>
    <path d="M0 132A132 132 0 0 1 -132 0" fill="none" stroke="#fbbc05" stroke-width="18" stroke-linecap="round"/>
    <path d="M-132 0A132 132 0 0 1 0 -132" fill="none" stroke="#34a853" stroke-width="18" stroke-linecap="round"/>
    <circle cx="0" cy="-132" r="9" fill="#4285f4"/>

    <path d="M-78 52L-24 -14L32 26L86 -50" fill="none" stroke="#5f6368" stroke-width="12" stroke-linecap="round" stroke-linejoin="round"/>
    <circle cx="-78" cy="52" r="16" fill="#4285f4"/>
    <circle cx="-24" cy="-14" r="16" fill="#ea4335"/>
    <circle cx="32" cy="26" r="16" fill="#fbbc05"/>
    <circle cx="86" cy="-50" r="16" fill="#34a853"/>
  </g>

</svg>
